<svg xmlns="http://www.w3.org/2000/svg" viewBox="0 0 50 50">
  <path d="M2 10.53125C0.960938 10.53125 0.105469 11.367188 0 12.40625L0 29.0625C0.105469 34.371094 4.382813 38.625 9.6875 38.625C13.433594 38.625 16.65625 36.527344 18.21875 33.40625C19.882813 36.421875 23.109375 38.625 26.75 38.625C32.054688 38.625 36.4375 34.242188 36.4375 28.9375C36.539063 23.527344 32.152344 19.15625 26.84375 19.15625C23.101563 19.15625 19.871094 21.253906 18.3125 24.375C16.648438 21.359375 13.421875 19.15625 9.78125 19.15625C7.597656 19.15625 5.632813 19.90625 3.96875 21.15625L3.96875 12.40625C3.96875 11.367188 3.144531 10.53125 2 10.53125 Z M 47.78125 19.09375C47.289063 19.144531 46.84375 19.363281 46.53125 19.78125L42.25 25.5L37.875 19.90625C37.25 19.074219 36.019531 18.867188 35.1875 19.59375C34.355469 20.21875 34.125 21.449219 34.75 22.28125L39.75 28.9375L34.75 35.5C34.125 36.332031 34.355469 37.566406 35.1875 38.1875C36.019531 38.8125 37.25 38.707031 37.875 37.875L42.15625 32.15625L46.40625 37.875C47.03125 38.707031 48.292969 38.914063 49.125 38.1875C50.058594 37.566406 50.144531 36.4375 49.625 35.5L44.65625 28.84375L49.625 22.1875C50.25 21.355469 50.050781 20.09375 49.21875 19.46875C48.804688 19.15625 48.273438 19.042969 47.78125 19.09375 Z M 9.6875 23C12.914063 23 15.5 25.617188 15.5 28.84375C15.5 32.070313 12.914063 34.65625 9.6875 34.65625C6.464844 34.65625 3.875 32.070313 3.875 28.84375C3.875 25.617188 6.464844 23 9.6875 23 Z M 26.84375 23C30.070313 23 32.6875 25.617188 32.6875 28.84375C32.6875 32.070313 30.070313 34.65625 26.84375 34.65625C23.621094 34.65625 21.03125 32.070313 21.03125 28.84375C21.03125 25.617188 23.621094 23 26.84375 23Z" fill="#1A193C" />
</svg>