<svg xmlns="http://www.w3.org/2000/svg" viewBox="0 0 26 26">
  <path d="M8.8125 0C8.347656 0.0507813 7.917969 0.261719 7.59375 0.59375L3.59375 4.59375C3.21875 4.964844 3.003906 5.472656 3 6L3 20C3.003906 20.527344 3.21875 21.035156 3.59375 21.40625L7.59375 25.40625C7.964844 25.78125 8.472656 25.996094 9 26L17 26C17.527344 25.996094 18.035156 25.78125 18.40625 25.40625L22.40625 21.40625L19.59375 18.59375L16.1875 22L9.8125 22L7 19.1875L7 6.8125L9.8125 4L16.1875 4L19.59375 7.40625L22.40625 4.59375L18.40625 0.59375C18.035156 0.21875 17.527344 0.00390625 17 0L9 0C8.9375 -0.00390625 8.875 -0.00390625 8.8125 0Z" fill="#1A193C" />
</svg>