<svg xmlns="http://www.w3.org/2000/svg" viewBox="0 0 24 24">
  <path d="M3 3L3 4L3 10.382812C2.7931729 10.52181 2.5979994 10.675438 2.421875 10.851562L1 12L0 12L0 20L1 20C1 20 1.6131562 20.380125 1.9101562 20.578125C2.1901562 20.765125 2.6495781 20.982422 3.0175781 20.982422L8.1054688 20.982422L8.2695312 20.894531C14.932531 17.355531 15.208172 16.941625 15.326172 16.765625L15.763672 15L23 15L23 3L3 3 z M 7.2011719 5L18.845703 5 A 1.499 1.499 0 0 0 20.265625 6.9804688 A 1.499 1.499 0 0 0 21 6.7871094L21 11.169922 A 1.499 1.499 0 0 0 20.265625 10.974609 A 1.499 1.499 0 0 0 18.863281 13L8.4082031 13L9.9023438 11.945312C10.762344 11.371313 11.061953 10.292328 10.626953 9.3613281L10.576172 9.2597656C10.100172 8.3687656 9.0703125 7.9540625 8.0703125 8.2890625L5 9.4980469L5 6.7597656 A 1.499 1.499 0 0 0 5.78125 6.9804688 A 1.499 1.499 0 0 0 7.2011719 5 z M 13 6C12.2 6 11.477453 6.317125 10.939453 6.828125C11.499453 7.190125 11.977547 7.6875469 12.310547 8.3105469L12.392578 8.4726562C12.779578 9.2986563 12.863078 10.177 12.705078 11L15.220703 11C15.699703 10.468 16 9.772 16 9C16 7.343 14.657 6 13 6 z" fill="#1A193C" />
</svg>