<svg xmlns="http://www.w3.org/2000/svg" viewBox="0 0 24 24">
  <path d="M8 2C6.3549904 2 5 3.3549904 5 5C5 6.6450096 6.3549904 8 8 8C8.9361869 8 9.7682902 7.5525107 10.320312 6.8710938L10.791016 7.6171875L9.2460938 10L2 10L2 22L22 22L22 10L13.865234 10L12.601562 12L19.091797 12C19.242797 12.424 19.576 12.757203 20 12.908203L20 19.091797C19.576 19.242797 19.242797 19.576 19.091797 20L4.9082031 20C4.7572031 19.576 4.424 19.242797 4 19.091797L4 12.908203C4.424 12.757203 4.7572031 12.424 4.9082031 12L7.9492188 12L6.6523438 14L9 14L13.664062 6.8515625C14.215744 7.5441077 15.054903 8 16 8C17.64501 8 19 6.6450096 19 5C19 3.3549904 17.64501 2 16 2C14.762781 2 13.692365 2.7678033 13.236328 3.8476562L11.988281 5.7695312L10.804688 3.8945312L10.783203 3.9082031C10.341707 2.7976107 9.2594644 2 8 2 z M 8 4C8.5641294 4 9 4.4358706 9 5C9 5.5641294 8.5641294 6 8 6C7.4358706 6 7 5.5641294 7 5C7 4.4358706 7.4358706 4 8 4 z M 16 4C16.564129 4 17 4.4358706 17 5C17 5.5641294 16.564129 6 16 6C15.435871 6 15 5.5641294 15 5C15 4.4358706 15.435871 4 16 4 z M 12.037109 13.003906L10.736328 15C10.349328 15.639 9.783 15.993 9 16C9 17.657 10.343 19 12 19C13.657 19 15 17.657 15 16C15 14.356 13.676109 13.024906 12.037109 13.003906 z M 7 15 A 1 1 0 0 0 6 16 A 1 1 0 0 0 7 17 A 1 1 0 0 0 8 16 A 1 1 0 0 0 7 15 z M 17 15 A 1 1 0 0 0 16 16 A 1 1 0 0 0 17 17 A 1 1 0 0 0 18 16 A 1 1 0 0 0 17 15 z" fill="#1A193C" />
</svg>