<svg xmlns="http://www.w3.org/2000/svg" viewBox="0 0 50 50">
  <path d="M28.58 43.69C27.44 43.89 26.22 44 25 44c-3.2 0-6.4-.7-8-2.09V45c0 1.7 3.6 3 8 3 2.09 0 3.99-.29 5.42-.78C29.62 46.16 28.99 44.97 28.58 43.69zM8 44c-3.2 0-6.4-.7-8-2.09V45c0 1.7 3.6 3 8 3s8-1.3 8-3v-3.09C14.4 43.3 11.2 44 8 44zM28 40c0-.41.02-.82.06-1.23C27.08 38.92 26.04 39 25 39c-3.2 0-6.4-.7-8-2.09V40c0 1.7 3.6 3 8 3 1.18 0 2.31-.09 3.32-.27C28.11 41.85 28 40.94 28 40zM8 39c-3.2 0-6.4-.7-8-2.09V40c0 1.7 3.6 3 8 3s8-1.3 8-3v-3.09C14.4 38.3 11.2 39 8 39zM25 34c-3.2 0-6.4-.7-8-2.09V35c0 1.7 3.6 3 8 3 1.14 0 2.22-.09 3.21-.25.3-1.59.92-3.08 1.79-4.38C28.51 33.79 26.75 34 25 34zM8 34c-3.2 0-6.4-.7-8-2.09V35c0 1.7 3.6 3 8 3s8-1.3 8-3v-3.09C14.4 33.3 11.2 34 8 34zM25 27c-4.42 0-8 1.34-8 3 0 1.66 3.58 3 8 3 2.46 0 4.67-.42 6.13-1.07l1.83-1.64C32.99 30.19 33 30.1 33 30 33 28.34 29.42 27 25 27zM34 26.91v2.7c.94-.54 1.95-.96 3.02-1.23C35.78 28.03 34.73 27.54 34 26.91zM44.46 28.86c1.59.64 3.02 1.61 4.18 2.83C49.5 31.21 50 30.63 50 30v-3.09C48.81 27.94 46.75 28.59 44.46 28.86zM8 29c-3.2 0-6.4-.7-8-2.09V30c0 1.7 3.6 3 8 3s8-1.3 8-3v-3.09C14.4 28.3 11.2 29 8 29zM42 24c-3.2 0-6.4-.7-8-2.09V25c0 1.7 3.6 3 8 3s8-1.3 8-3v-3.09C48.4 23.3 45.2 24 42 24zM8 24c-3.2 0-6.4-.7-8-2.09V25c0 1.7 3.6 3 8 3s8-1.3 8-3v-3.09C14.4 23.3 11.2 24 8 24zM8 17c-4.42 0-8 1.34-8 3 0 1.66 3.58 3 8 3s8-1.34 8-3C16 18.34 12.42 17 8 17zM42 19c-3.2 0-6.4-.7-8-2.09V20c0 1.7 3.6 3 8 3s8-1.3 8-3v-3.09C48.4 18.3 45.2 19 42 19zM42 14c-3.2 0-6.4-.7-8-2.09V15c0 1.7 3.6 3 8 3s8-1.3 8-3v-3.09C48.4 13.3 45.2 14 42 14zM42 9c-3.2 0-6.4-.7-8-2.09V10c0 1.7 3.6 3 8 3s8-1.3 8-3V6.91C48.4 8.3 45.2 9 42 9zM42 2c-4.42 0-8 1.34-8 3 0 1.66 3.58 3 8 3s8-1.34 8-3C50 3.34 46.42 2 42 2zM40 30c-5.52 0-10 4.48-10 10 0 5.52 4.48 10 10 10s10-4.48 10-10C50 34.48 45.52 30 40 30zM43.66 44.97h-7.59v-1.79c1.2-.16 2.01-1.07 2.03-2.27 0-.14-.03-.28-.06-.4h-1.93v-1.58h1.48c-.23-.61-.38-1.12-.38-1.7 0-1.75 1.38-2.77 3.77-2.77.9 0 1.61.08 2.23.24v1.8c-.65-.15-1.24-.22-1.92-.22-1.21 0-1.96.53-1.96 1.39 0 .45.1.85.27 1.26h2.75v1.58h-2.32c.03.12.06.24.06.38.04.84-.37 1.64-1.08 2.02v.14h4.65V44.97z" fill="#1A193C" />
</svg>