<svg xmlns="http://www.w3.org/2000/svg" viewBox="0 0 50 50">
  <path d="M15.001953 6.125C14.706828 6.125 14.413391 6.2532187 14.212891 6.5117188L12.421875 8.8222656L8.9257812 8.8222656C8.3737813 8.8222656 7.9257812 9.2702656 7.9257812 9.8222656L7.9257812 13.320312L5.6132812 15.109375C5.0962812 15.509375 5.0962812 16.290406 5.6132812 16.691406L7.9257812 18.482422L7.9257812 21.978516C7.9257812 22.530516 8.3737812 22.978516 8.9257812 22.978516L10.871094 22.978516L7.5292969 26.320312C6.9092969 26.940313 6.5703125 27.770391 6.5703125 28.650391C6.5703125 29.530391 6.9092969 30.350469 7.5292969 30.980469L22.089844 45.539062C22.729844 46.179063 23.579922 46.5 24.419922 46.5C25.259922 46.5 26.1 46.179062 26.75 45.539062L44.039062 28.25C44.659062 27.63 45 26.799922 45 25.919922L45 11.359375C45 9.539375 43.520938 8.0703125 41.710938 8.0703125L27.150391 8.0703125C26.270391 8.0703125 25.440312 8.4092969 24.820312 9.0292969L22.080078 11.769531L22.080078 9.8222656C22.080078 9.2692656 21.632078 8.8222656 21.080078 8.8222656L17.583984 8.8222656L15.792969 6.5117188C15.592969 6.2532188 15.297078 6.125 15.001953 6.125 z M 15.003906 12.507812C16.738722 12.507812 18.152535 13.814085 18.355469 15.494141L14.595703 19.253906C12.916024 19.050624 11.609375 17.634938 11.609375 15.900391C11.609375 14.026391 13.129906 12.507813 15.003906 12.507812 z M 36.570312 14.072266C37.337812 14.072266 38.104453 14.364219 38.689453 14.949219C39.859453 16.129219 39.859453 18.029219 38.689453 19.199219C37.519453 20.369219 35.619219 20.369219 34.449219 19.199219C33.269219 18.029219 33.269219 16.129219 34.449219 14.949219C35.034219 14.364219 35.802813 14.072266 36.570312 14.072266 z M 24.519531 18.320312C25.049531 18.270312 25.540547 18.729297 25.560547 19.279297L26.289062 37.400391C26.309062 37.950391 25.880078 38.419453 25.330078 38.439453L25.289062 38.439453C24.759062 38.439453 24.309062 38.020469 24.289062 37.480469L23.570312 19.359375C23.540312 18.809375 23.969531 18.340312 24.519531 18.320312 z M 30.910156 24.513672C31.770156 24.542422 32.640391 24.939219 33.400391 25.699219C34.930391 27.229219 35.000547 29.179141 33.560547 30.619141C32.130547 32.039141 30.170391 31.980937 28.650391 30.460938C27.120391 28.930937 27.060469 26.969062 28.480469 25.539062C29.200469 24.824063 30.050156 24.484922 30.910156 24.513672 z M 18.806641 25.015625C19.665391 25.040625 20.535781 25.434219 21.300781 26.199219C22.820781 27.719219 22.890938 29.689141 21.460938 31.119141C20.030938 32.549141 18.059297 32.480938 16.529297 30.960938C15.019297 29.440938 14.950859 27.490781 16.380859 26.050781C17.100859 25.335781 17.947891 24.990625 18.806641 25.015625 z M 30.486328 26.705078C30.266953 26.707187 30.069141 26.792188 29.900391 26.960938C29.470391 27.400938 29.610547 28.069531 30.310547 28.769531C31.010547 29.469531 31.700859 29.629453 32.130859 29.189453C32.580859 28.749453 32.410703 28.059141 31.720703 27.369141C31.276953 26.925391 30.851953 26.701562 30.486328 26.705078 z M 18.378906 27.207031C18.158301 27.20791 17.957812 27.292188 17.789062 27.460938C17.349063 27.900938 17.509219 28.579297 18.199219 29.279297C18.899219 29.979297 19.589297 30.129453 20.029297 29.689453C20.459297 29.249453 20.309375 28.569141 19.609375 27.869141C19.171875 27.431641 18.746582 27.205566 18.378906 27.207031 z" fill="#1A193C" />
</svg>